<svg width="17" height="19" viewBox="0 0 17 19" fill="none" xmlns="http://www.w3.org/2000/svg">
<path d="M8.5 5.13867C6.125 5.13867 4.23242 7.06836 4.23242 9.40625C4.23242 11.7812 6.125 13.6739 8.5 13.6739C10.8379 13.6739 12.7676 11.7812 12.7676 9.40625C12.7676 7.06836 10.8379 5.13867 8.5 5.13867ZM8.5 12.1895C6.97852 12.1895 5.7168 10.9648 5.7168 9.40625C5.7168 7.88477 6.94141 6.66016 8.5 6.66016C10.0215 6.66016 11.2461 7.88477 11.2461 9.40625C11.2461 10.9648 10.0215 12.1895 8.5 12.1895ZM13.918 4.99023C13.918 4.43359 13.4727 3.98828 12.916 3.98828C12.3594 3.98828 11.9141 4.43359 11.9141 4.99023C11.9141 5.54687 12.3594 5.99219 12.916 5.99219C13.4727 5.99219 13.918 5.54687 13.918 4.99023ZM16.7383 5.99219C16.6641 4.65625 16.3672 3.46875 15.4023 2.50391C14.4375 1.53906 13.25 1.24219 11.9141 1.16797C10.541 1.09375 6.42188 1.09375 5.04883 1.16797C3.71289 1.24219 2.5625 1.53906 1.56055 2.50391C0.595703 3.46875 0.298828 4.65625 0.224609 5.99219C0.150391 7.36523 0.150391 11.4843 0.224609 12.8574C0.298828 14.1933 0.595703 15.3438 1.56055 16.3457C2.5625 17.3106 3.71289 17.6075 5.04883 17.6817C6.42188 17.7558 10.541 17.7558 11.9141 17.6817C13.25 17.6075 14.4375 17.3106 15.4023 16.3457C16.3672 15.3438 16.6641 14.1933 16.7383 12.8574C16.8125 11.4843 16.8125 7.36523 16.7383 5.99219ZM14.957 14.3047C14.6973 15.0469 14.1035 15.6035 13.3984 15.9003C12.2852 16.3457 9.6875 16.2344 8.5 16.2344C7.27539 16.2344 4.67773 16.3457 3.60156 15.9003C2.85938 15.6035 2.30273 15.0469 2.00586 14.3047C1.56055 13.2285 1.67188 10.6308 1.67188 9.40625C1.67188 8.21875 1.56055 5.62109 2.00586 4.50781C2.30273 3.80273 2.85938 3.24609 3.60156 2.94922C4.67773 2.50391 7.27539 2.61523 8.5 2.61523C9.6875 2.61523 12.2852 2.50391 13.3984 2.94922C14.1035 3.20898 14.6602 3.80273 14.957 4.50781C15.4023 5.62109 15.291 8.21875 15.291 9.40625C15.291 10.6308 15.4023 13.2285 14.957 14.3047Z" fill="white"/>
</svg>
